<mxfile host="app.diagrams.net" modified="2020-11-16T02:08:33.829Z" agent="5.0 (Windows NT 10.0; Win64; x64) AppleWebKit/537.36 (KHTML, like Gecko) Chrome/86.0.4240.193 Safari/537.36 Edg/86.0.622.68" etag="kUBxQDnSxncil5s-Rw_y" version="13.9.8" type="github">
  <diagram id="wGbNQAF3rh7kJaGg-0bd" name="第 1 页">
    <mxGraphModel dx="1108" dy="433" grid="1" gridSize="10" guides="1" tooltips="1" connect="1" arrows="1" fold="1" page="1" pageScale="1" pageWidth="827" pageHeight="1169" math="0" shadow="0">
      <root>
        <mxCell id="0" />
        <mxCell id="1" parent="0" />
        <mxCell id="qeY42DRzwTkkw9GAALr9-28" value="填写用户信息" style="html=1;verticalAlign=bottom;endArrow=block;" edge="1" parent="1">
          <mxGeometry width="80" relative="1" as="geometry">
            <mxPoint x="290" y="490" as="sourcePoint" />
            <mxPoint x="466" y="490" as="targetPoint" />
          </mxGeometry>
        </mxCell>
        <mxCell id="qeY42DRzwTkkw9GAALr9-16" value="点击用户信息备案" style="html=1;verticalAlign=bottom;startArrow=oval;endArrow=block;startSize=8;entryX=0.1;entryY=0.233;entryDx=0;entryDy=0;entryPerimeter=0;" edge="1" parent="1" target="qeY42DRzwTkkw9GAALr9-17">
          <mxGeometry relative="1" as="geometry">
            <mxPoint x="290" y="380" as="sourcePoint" />
            <mxPoint x="470" y="380" as="targetPoint" />
          </mxGeometry>
        </mxCell>
        <mxCell id="qeY42DRzwTkkw9GAALr9-7" value="输入初始用户名和密码" style="html=1;verticalAlign=bottom;startArrow=oval;startFill=1;endArrow=block;startSize=8;entryX=0;entryY=0.505;entryDx=0;entryDy=0;entryPerimeter=0;" edge="1" parent="1" source="TLXemX-RSQB3tJ_CDlbK-8" target="TLXemX-RSQB3tJ_CDlbK-17">
          <mxGeometry width="60" relative="1" as="geometry">
            <mxPoint x="530" y="230" as="sourcePoint" />
            <mxPoint x="462" y="228" as="targetPoint" />
            <Array as="points">
              <mxPoint x="310" y="230" />
            </Array>
          </mxGeometry>
        </mxCell>
        <mxCell id="TLXemX-RSQB3tJ_CDlbK-18" value="点击创建用户" style="html=1;verticalAlign=bottom;startArrow=oval;endArrow=block;startSize=8;" parent="1" target="TLXemX-RSQB3tJ_CDlbK-17" edge="1">
          <mxGeometry relative="1" as="geometry">
            <mxPoint x="110" y="120" as="sourcePoint" />
          </mxGeometry>
        </mxCell>
        <mxCell id="TLXemX-RSQB3tJ_CDlbK-8" value=":User_Province" style="shape=umlLifeline;perimeter=lifelinePerimeter;whiteSpace=wrap;html=1;container=1;collapsible=0;recursiveResize=0;outlineConnect=0;" parent="1" vertex="1">
          <mxGeometry x="60" y="40" width="100" height="1030" as="geometry" />
        </mxCell>
        <mxCell id="TLXemX-RSQB3tJ_CDlbK-13" value="" style="html=1;points=[];perimeter=orthogonalPerimeter;" parent="TLXemX-RSQB3tJ_CDlbK-8" vertex="1">
          <mxGeometry x="45" y="70" width="10" height="220" as="geometry" />
        </mxCell>
        <mxCell id="qeY42DRzwTkkw9GAALr9-42" value="" style="html=1;points=[];perimeter=orthogonalPerimeter;" vertex="1" parent="TLXemX-RSQB3tJ_CDlbK-8">
          <mxGeometry x="45" y="630" width="10" height="140" as="geometry" />
        </mxCell>
        <mxCell id="TLXemX-RSQB3tJ_CDlbK-9" value=":User_company" style="shape=umlLifeline;perimeter=lifelinePerimeter;whiteSpace=wrap;html=1;container=1;collapsible=0;recursiveResize=0;outlineConnect=0;" parent="1" vertex="1">
          <mxGeometry x="240" y="40" width="100" height="1030" as="geometry" />
        </mxCell>
        <mxCell id="TLXemX-RSQB3tJ_CDlbK-15" value="" style="html=1;points=[];perimeter=orthogonalPerimeter;" parent="TLXemX-RSQB3tJ_CDlbK-9" vertex="1">
          <mxGeometry x="45" y="320" width="10" height="80" as="geometry" />
        </mxCell>
        <mxCell id="qeY42DRzwTkkw9GAALr9-26" value="" style="html=1;points=[];perimeter=orthogonalPerimeter;" vertex="1" parent="TLXemX-RSQB3tJ_CDlbK-9">
          <mxGeometry x="45" y="440" width="10" height="160" as="geometry" />
        </mxCell>
        <mxCell id="TLXemX-RSQB3tJ_CDlbK-10" value=":UserAction" style="shape=umlLifeline;perimeter=lifelinePerimeter;whiteSpace=wrap;html=1;container=1;collapsible=0;recursiveResize=0;outlineConnect=0;" parent="1" vertex="1">
          <mxGeometry x="420" y="40" width="100" height="1030" as="geometry" />
        </mxCell>
        <mxCell id="TLXemX-RSQB3tJ_CDlbK-17" value="" style="html=1;points=[];perimeter=orthogonalPerimeter;" parent="TLXemX-RSQB3tJ_CDlbK-10" vertex="1">
          <mxGeometry x="45" y="80" width="10" height="220" as="geometry" />
        </mxCell>
        <mxCell id="qeY42DRzwTkkw9GAALr9-17" value="" style="html=1;points=[];perimeter=orthogonalPerimeter;" vertex="1" parent="TLXemX-RSQB3tJ_CDlbK-10">
          <mxGeometry x="45" y="320" width="10" height="90" as="geometry" />
        </mxCell>
        <mxCell id="qeY42DRzwTkkw9GAALr9-29" value="" style="html=1;points=[];perimeter=orthogonalPerimeter;" vertex="1" parent="TLXemX-RSQB3tJ_CDlbK-10">
          <mxGeometry x="45" y="440" width="10" height="160" as="geometry" />
        </mxCell>
        <mxCell id="qeY42DRzwTkkw9GAALr9-44" value="" style="html=1;points=[];perimeter=orthogonalPerimeter;" vertex="1" parent="TLXemX-RSQB3tJ_CDlbK-10">
          <mxGeometry x="45" y="630" width="10" height="140" as="geometry" />
        </mxCell>
        <mxCell id="qeY42DRzwTkkw9GAALr9-45" value="" style="html=1;points=[];perimeter=orthogonalPerimeter;" vertex="1" parent="TLXemX-RSQB3tJ_CDlbK-10">
          <mxGeometry x="225" y="650" width="10" height="80" as="geometry" />
        </mxCell>
        <mxCell id="qeY42DRzwTkkw9GAALr9-46" value="&lt;span lang=&quot;EN-US&quot;&gt;&lt;font style=&quot;font-size: 12px&quot;&gt;&lt;span lang=&quot;EN-US&quot;&gt;examine()&lt;/span&gt;/back()&lt;/font&gt;&lt;/span&gt;" style="html=1;verticalAlign=bottom;endArrow=block;entryX=0;entryY=0;" edge="1" target="qeY42DRzwTkkw9GAALr9-45" parent="TLXemX-RSQB3tJ_CDlbK-10" source="qeY42DRzwTkkw9GAALr9-44">
          <mxGeometry relative="1" as="geometry">
            <mxPoint x="155" y="650" as="sourcePoint" />
          </mxGeometry>
        </mxCell>
        <mxCell id="qeY42DRzwTkkw9GAALr9-47" value="return" style="html=1;verticalAlign=bottom;endArrow=open;dashed=1;endSize=8;exitX=0;exitY=0.95;" edge="1" source="qeY42DRzwTkkw9GAALr9-45" parent="TLXemX-RSQB3tJ_CDlbK-10">
          <mxGeometry relative="1" as="geometry">
            <mxPoint x="49.5" y="726" as="targetPoint" />
          </mxGeometry>
        </mxCell>
        <mxCell id="qeY42DRzwTkkw9GAALr9-50" value="return" style="html=1;verticalAlign=bottom;endArrow=open;dashed=1;endSize=8;exitX=0;exitY=0.95;" edge="1" source="qeY42DRzwTkkw9GAALr9-48" parent="TLXemX-RSQB3tJ_CDlbK-10">
          <mxGeometry relative="1" as="geometry">
            <mxPoint x="229.5" y="717" as="targetPoint" />
          </mxGeometry>
        </mxCell>
        <mxCell id="qeY42DRzwTkkw9GAALr9-49" value="&lt;span lang=&quot;EN-US&quot;&gt;&lt;font style=&quot;font-size: 12px&quot;&gt;pass_p(String username)&lt;/font&gt;&lt;/span&gt;" style="html=1;verticalAlign=bottom;endArrow=block;entryX=0;entryY=0;" edge="1" target="qeY42DRzwTkkw9GAALr9-48" parent="TLXemX-RSQB3tJ_CDlbK-10">
          <mxGeometry relative="1" as="geometry">
            <mxPoint x="229.5" y="660" as="sourcePoint" />
          </mxGeometry>
        </mxCell>
        <mxCell id="qeY42DRzwTkkw9GAALr9-51" value="&lt;span lang=&quot;EN-US&quot;&gt;&lt;font style=&quot;font-size: 12px&quot;&gt;back(String username)&lt;/font&gt;&lt;/span&gt;" style="text;html=1;align=center;verticalAlign=middle;resizable=0;points=[];autosize=1;" vertex="1" parent="TLXemX-RSQB3tJ_CDlbK-10">
          <mxGeometry x="260" y="660" width="140" height="20" as="geometry" />
        </mxCell>
        <mxCell id="TLXemX-RSQB3tJ_CDlbK-11" value=":UserProcess" style="shape=umlLifeline;perimeter=lifelinePerimeter;whiteSpace=wrap;html=1;container=1;collapsible=0;recursiveResize=0;outlineConnect=0;" parent="1" vertex="1">
          <mxGeometry x="600" y="40" width="100" height="1030" as="geometry" />
        </mxCell>
        <mxCell id="qeY42DRzwTkkw9GAALr9-1" value="" style="html=1;points=[];perimeter=orthogonalPerimeter;" vertex="1" parent="TLXemX-RSQB3tJ_CDlbK-11">
          <mxGeometry x="45" y="90" width="10" height="70" as="geometry" />
        </mxCell>
        <mxCell id="qeY42DRzwTkkw9GAALr9-9" value="" style="html=1;points=[];perimeter=orthogonalPerimeter;" vertex="1" parent="TLXemX-RSQB3tJ_CDlbK-11">
          <mxGeometry x="45" y="200" width="10" height="60" as="geometry" />
        </mxCell>
        <mxCell id="qeY42DRzwTkkw9GAALr9-18" value="" style="html=1;points=[];perimeter=orthogonalPerimeter;" vertex="1" parent="TLXemX-RSQB3tJ_CDlbK-11">
          <mxGeometry x="45" y="330" width="10" height="70" as="geometry" />
        </mxCell>
        <mxCell id="qeY42DRzwTkkw9GAALr9-30" value="" style="html=1;points=[];perimeter=orthogonalPerimeter;" vertex="1" parent="TLXemX-RSQB3tJ_CDlbK-11">
          <mxGeometry x="45" y="450" width="10" height="120" as="geometry" />
        </mxCell>
        <mxCell id="TLXemX-RSQB3tJ_CDlbK-12" value=":UserDAO" style="shape=umlLifeline;perimeter=lifelinePerimeter;whiteSpace=wrap;html=1;container=1;collapsible=0;recursiveResize=0;outlineConnect=0;" parent="1" vertex="1">
          <mxGeometry x="810" y="40" width="100" height="1030" as="geometry" />
        </mxCell>
        <mxCell id="qeY42DRzwTkkw9GAALr9-4" value="" style="html=1;points=[];perimeter=orthogonalPerimeter;" vertex="1" parent="TLXemX-RSQB3tJ_CDlbK-12">
          <mxGeometry x="45" y="110" width="10" height="40" as="geometry" />
        </mxCell>
        <mxCell id="qeY42DRzwTkkw9GAALr9-12" value="" style="html=1;points=[];perimeter=orthogonalPerimeter;" vertex="1" parent="TLXemX-RSQB3tJ_CDlbK-12">
          <mxGeometry x="45" y="210" width="10" height="40" as="geometry" />
        </mxCell>
        <mxCell id="qeY42DRzwTkkw9GAALr9-21" value="" style="html=1;points=[];perimeter=orthogonalPerimeter;" vertex="1" parent="TLXemX-RSQB3tJ_CDlbK-12">
          <mxGeometry x="45" y="340" width="10" height="40" as="geometry" />
        </mxCell>
        <mxCell id="qeY42DRzwTkkw9GAALr9-33" value="" style="html=1;points=[];perimeter=orthogonalPerimeter;" vertex="1" parent="TLXemX-RSQB3tJ_CDlbK-12">
          <mxGeometry x="45" y="460" width="10" height="40" as="geometry" />
        </mxCell>
        <mxCell id="qeY42DRzwTkkw9GAALr9-36" value="" style="html=1;points=[];perimeter=orthogonalPerimeter;" vertex="1" parent="TLXemX-RSQB3tJ_CDlbK-12">
          <mxGeometry x="45" y="520" width="10" height="40" as="geometry" />
        </mxCell>
        <mxCell id="qeY42DRzwTkkw9GAALr9-48" value="" style="html=1;points=[];perimeter=orthogonalPerimeter;" vertex="1" parent="TLXemX-RSQB3tJ_CDlbK-12">
          <mxGeometry x="45" y="660" width="10" height="60" as="geometry" />
        </mxCell>
        <mxCell id="qeY42DRzwTkkw9GAALr9-2" value="&lt;span style=&quot;font-size: 12px&quot;&gt;check()&lt;/span&gt;" style="html=1;verticalAlign=bottom;endArrow=block;entryX=0;entryY=0;" edge="1" target="qeY42DRzwTkkw9GAALr9-1" parent="1">
          <mxGeometry relative="1" as="geometry">
            <mxPoint x="470" y="130" as="sourcePoint" />
          </mxGeometry>
        </mxCell>
        <mxCell id="qeY42DRzwTkkw9GAALr9-3" value="return" style="html=1;verticalAlign=bottom;endArrow=open;dashed=1;endSize=8;exitX=0;exitY=0.95;" edge="1" source="qeY42DRzwTkkw9GAALr9-1" parent="1" target="TLXemX-RSQB3tJ_CDlbK-10">
          <mxGeometry relative="1" as="geometry">
            <mxPoint x="575" y="206" as="targetPoint" />
          </mxGeometry>
        </mxCell>
        <mxCell id="qeY42DRzwTkkw9GAALr9-6" value="return" style="html=1;verticalAlign=bottom;endArrow=open;dashed=1;endSize=8;exitX=0;exitY=0.95;" edge="1" source="qeY42DRzwTkkw9GAALr9-4" parent="1" target="TLXemX-RSQB3tJ_CDlbK-11">
          <mxGeometry relative="1" as="geometry">
            <mxPoint x="755" y="206" as="targetPoint" />
          </mxGeometry>
        </mxCell>
        <mxCell id="qeY42DRzwTkkw9GAALr9-5" value="&lt;span lang=&quot;EN-US&quot;&gt;&lt;font style=&quot;font-size: 12px&quot;&gt;check_by_id(String id)&lt;/font&gt;&lt;/span&gt;" style="html=1;verticalAlign=bottom;endArrow=block;entryX=0;entryY=0;" edge="1" target="qeY42DRzwTkkw9GAALr9-4" parent="1" source="TLXemX-RSQB3tJ_CDlbK-11">
          <mxGeometry relative="1" as="geometry">
            <mxPoint x="755" y="130" as="sourcePoint" />
          </mxGeometry>
        </mxCell>
        <mxCell id="qeY42DRzwTkkw9GAALr9-10" value="&lt;span style=&quot;font-size: 12px&quot;&gt;create_user()&lt;/span&gt;" style="html=1;verticalAlign=bottom;endArrow=block;entryX=0;entryY=0;" edge="1" target="qeY42DRzwTkkw9GAALr9-9" parent="1" source="TLXemX-RSQB3tJ_CDlbK-17">
          <mxGeometry relative="1" as="geometry">
            <mxPoint x="575" y="240" as="sourcePoint" />
          </mxGeometry>
        </mxCell>
        <mxCell id="qeY42DRzwTkkw9GAALr9-11" value="return" style="html=1;verticalAlign=bottom;endArrow=open;dashed=1;endSize=8;exitX=0;exitY=0.95;" edge="1" source="qeY42DRzwTkkw9GAALr9-9" parent="1" target="TLXemX-RSQB3tJ_CDlbK-10">
          <mxGeometry relative="1" as="geometry">
            <mxPoint x="575" y="316" as="targetPoint" />
          </mxGeometry>
        </mxCell>
        <mxCell id="qeY42DRzwTkkw9GAALr9-14" value="return" style="html=1;verticalAlign=bottom;endArrow=open;dashed=1;endSize=8;exitX=0;exitY=0.95;" edge="1" source="qeY42DRzwTkkw9GAALr9-12" parent="1" target="TLXemX-RSQB3tJ_CDlbK-11">
          <mxGeometry relative="1" as="geometry">
            <mxPoint x="755" y="326" as="targetPoint" />
          </mxGeometry>
        </mxCell>
        <mxCell id="qeY42DRzwTkkw9GAALr9-13" value="&lt;span lang=&quot;EN-US&quot;&gt;&lt;font style=&quot;font-size: 12px&quot;&gt;add_user(User u)&lt;/font&gt;&lt;/span&gt;" style="html=1;verticalAlign=bottom;endArrow=block;entryX=0;entryY=0;" edge="1" target="qeY42DRzwTkkw9GAALr9-12" parent="1" source="TLXemX-RSQB3tJ_CDlbK-11">
          <mxGeometry relative="1" as="geometry">
            <mxPoint x="755" y="250" as="sourcePoint" />
          </mxGeometry>
        </mxCell>
        <mxCell id="qeY42DRzwTkkw9GAALr9-15" value="返回结果" style="endArrow=open;endSize=12;dashed=1;html=1;" edge="1" parent="1" source="TLXemX-RSQB3tJ_CDlbK-17" target="TLXemX-RSQB3tJ_CDlbK-13">
          <mxGeometry y="-10" width="160" relative="1" as="geometry">
            <mxPoint x="430" y="260" as="sourcePoint" />
            <mxPoint x="380" y="320" as="targetPoint" />
            <Array as="points">
              <mxPoint x="260" y="320" />
            </Array>
            <mxPoint as="offset" />
          </mxGeometry>
        </mxCell>
        <mxCell id="qeY42DRzwTkkw9GAALr9-19" value="&lt;span lang=&quot;EN-US&quot;&gt;&lt;font style=&quot;font-size: 12px&quot;&gt;change_info()&lt;/font&gt;&lt;/span&gt;" style="html=1;verticalAlign=bottom;endArrow=block;entryX=0;entryY=0;" edge="1" target="qeY42DRzwTkkw9GAALr9-18" parent="1" source="TLXemX-RSQB3tJ_CDlbK-10">
          <mxGeometry relative="1" as="geometry">
            <mxPoint x="575" y="370" as="sourcePoint" />
          </mxGeometry>
        </mxCell>
        <mxCell id="qeY42DRzwTkkw9GAALr9-20" value="return" style="html=1;verticalAlign=bottom;endArrow=open;dashed=1;endSize=8;" edge="1" source="qeY42DRzwTkkw9GAALr9-18" parent="1" target="TLXemX-RSQB3tJ_CDlbK-10">
          <mxGeometry relative="1" as="geometry">
            <mxPoint x="575" y="446" as="targetPoint" />
            <Array as="points">
              <mxPoint x="560" y="430" />
            </Array>
          </mxGeometry>
        </mxCell>
        <mxCell id="qeY42DRzwTkkw9GAALr9-31" value="&lt;span lang=&quot;EN-US&quot;&gt;&lt;font style=&quot;font-size: 12px&quot;&gt;change_info()&lt;/font&gt;&lt;/span&gt;" style="html=1;verticalAlign=bottom;endArrow=block;entryX=0;entryY=0;" edge="1" target="qeY42DRzwTkkw9GAALr9-30" parent="1" source="TLXemX-RSQB3tJ_CDlbK-10">
          <mxGeometry relative="1" as="geometry">
            <mxPoint x="575" y="490" as="sourcePoint" />
          </mxGeometry>
        </mxCell>
        <mxCell id="qeY42DRzwTkkw9GAALr9-32" value="return" style="html=1;verticalAlign=bottom;endArrow=open;dashed=1;endSize=8;exitX=0;exitY=0.95;" edge="1" source="qeY42DRzwTkkw9GAALr9-30" parent="1" target="TLXemX-RSQB3tJ_CDlbK-10">
          <mxGeometry relative="1" as="geometry">
            <mxPoint x="575" y="566" as="targetPoint" />
          </mxGeometry>
        </mxCell>
        <mxCell id="qeY42DRzwTkkw9GAALr9-37" value="&lt;span lang=&quot;EN-US&quot;&gt;&lt;font style=&quot;font-size: 12px&quot;&gt;update_company(User_company u)&lt;/font&gt;&lt;/span&gt;" style="html=1;verticalAlign=bottom;endArrow=block;entryX=0;entryY=0;" edge="1" target="qeY42DRzwTkkw9GAALr9-36" parent="1" source="TLXemX-RSQB3tJ_CDlbK-11">
          <mxGeometry relative="1" as="geometry">
            <mxPoint x="755" y="560" as="sourcePoint" />
          </mxGeometry>
        </mxCell>
        <mxCell id="qeY42DRzwTkkw9GAALr9-38" value="return" style="html=1;verticalAlign=bottom;endArrow=open;dashed=1;endSize=8;exitX=0;exitY=0.95;" edge="1" source="qeY42DRzwTkkw9GAALr9-36" parent="1" target="TLXemX-RSQB3tJ_CDlbK-11">
          <mxGeometry relative="1" as="geometry">
            <mxPoint x="755" y="636" as="targetPoint" />
          </mxGeometry>
        </mxCell>
        <mxCell id="qeY42DRzwTkkw9GAALr9-23" value="&lt;span lang=&quot;EN-US&quot;&gt;&lt;font style=&quot;font-size: 12px&quot;&gt;check_by_id(String id)&lt;/font&gt;&lt;/span&gt;" style="html=1;verticalAlign=bottom;endArrow=block;entryX=0;entryY=0;" edge="1" parent="1" target="qeY42DRzwTkkw9GAALr9-21">
          <mxGeometry relative="1" as="geometry">
            <mxPoint x="655" y="380" as="sourcePoint" />
          </mxGeometry>
        </mxCell>
        <mxCell id="qeY42DRzwTkkw9GAALr9-22" value="return" style="html=1;verticalAlign=bottom;endArrow=open;dashed=1;endSize=8;exitX=0;exitY=0.95;" edge="1" parent="1" source="qeY42DRzwTkkw9GAALr9-21">
          <mxGeometry relative="1" as="geometry">
            <mxPoint x="650" y="417" as="targetPoint" />
          </mxGeometry>
        </mxCell>
        <mxCell id="qeY42DRzwTkkw9GAALr9-35" value="&lt;span lang=&quot;EN-US&quot;&gt;&lt;font style=&quot;font-size: 12px&quot;&gt;check_by_id(String id)&lt;/font&gt;&lt;/span&gt;" style="html=1;verticalAlign=bottom;endArrow=block;entryX=0;entryY=0;" edge="1" parent="1" target="qeY42DRzwTkkw9GAALr9-33" source="qeY42DRzwTkkw9GAALr9-30">
          <mxGeometry relative="1" as="geometry">
            <mxPoint x="679.5" y="500" as="sourcePoint" />
          </mxGeometry>
        </mxCell>
        <mxCell id="qeY42DRzwTkkw9GAALr9-34" value="return" style="html=1;verticalAlign=bottom;endArrow=open;dashed=1;endSize=8;exitX=0;exitY=0.95;" edge="1" parent="1" source="qeY42DRzwTkkw9GAALr9-33">
          <mxGeometry relative="1" as="geometry">
            <mxPoint x="650" y="535" as="targetPoint" />
          </mxGeometry>
        </mxCell>
        <mxCell id="qeY42DRzwTkkw9GAALr9-39" value="返回结果" style="html=1;verticalAlign=bottom;endArrow=open;dashed=1;endSize=8;" edge="1" parent="1" target="TLXemX-RSQB3tJ_CDlbK-9">
          <mxGeometry relative="1" as="geometry">
            <mxPoint x="470" y="620" as="sourcePoint" />
            <mxPoint x="390" y="630" as="targetPoint" />
          </mxGeometry>
        </mxCell>
        <mxCell id="qeY42DRzwTkkw9GAALr9-43" value="点击审核通过/审核不通过" style="html=1;verticalAlign=bottom;endArrow=block;entryX=0.1;entryY=0.071;entryDx=0;entryDy=0;entryPerimeter=0;" edge="1" parent="1" target="qeY42DRzwTkkw9GAALr9-44">
          <mxGeometry width="80" relative="1" as="geometry">
            <mxPoint x="110" y="680" as="sourcePoint" />
            <mxPoint x="283" y="678" as="targetPoint" />
          </mxGeometry>
        </mxCell>
        <mxCell id="qeY42DRzwTkkw9GAALr9-53" value="返回结果" style="html=1;verticalAlign=bottom;endArrow=open;dashed=1;endSize=8;" edge="1" parent="1" target="TLXemX-RSQB3tJ_CDlbK-8">
          <mxGeometry relative="1" as="geometry">
            <mxPoint x="470" y="780" as="sourcePoint" />
            <mxPoint x="390" y="780" as="targetPoint" />
          </mxGeometry>
        </mxCell>
      </root>
    </mxGraphModel>
  </diagram>
</mxfile>
